<svg xmlns="http://www.w3.org/2000/svg" xmlns:xlink="http://www.w3.org/1999/xlink" width="132.9" height="152" viewBox="8.1 -1 132.9 152"><defs><clipPath id="b"><path d="M9 .8h110V143H9Zm0 0"/></clipPath><clipPath id="c"><path d="M-4.2 127.2 43.1-15.2l89 29.5-47.3 142.5Zm0 0"/></clipPath><clipPath id="e"><path d="M-4.2 127.2 43.1-15.2l89 29.5-47.3 142.5Zm0 0"/></clipPath><clipPath id="f"><path d="M14 3h110v142H14Zm0 0"/></clipPath><clipPath id="g"><path d="M-4.2 127.2 43.1-15.2l89 29.5-47.3 142.5Zm0 0"/></clipPath><clipPath id="h"><path d="M-4.2 127.2 43.1-15.2l89 29.5-47.3 142.5Zm0 0"/></clipPath><clipPath id="i"><path d="M11 1h113v142H11Zm0 0"/></clipPath><clipPath id="l"><path d="M-4.2 127.2 43.1-15.2l89 29.5-47.3 142.5Zm0 0"/></clipPath><clipPath id="m"><path d="M-4.2 127.2 43.1-15.2l89 29.5-47.3 142.5Zm0 0"/></clipPath><clipPath id="n"><path d="M36 5h84v120H36Zm0 0"/></clipPath><clipPath id="o"><path d="M-4.2 127.2 43.1-15.2l89 29.5-47.3 142.5Zm0 0"/></clipPath><clipPath id="p"><path d="M-4.2 127.2 43.1-15.2l89 29.5-47.3 142.5Zm0 0"/></clipPath><clipPath id="q"><path d="M109 38h10v5h-10Zm0 0"/></clipPath><clipPath id="r"><path d="M-4.2 127.2 43.1-15.2l89 29.5-47.3 142.5Zm0 0"/></clipPath><clipPath id="s"><path d="M-4.2 127.2 43.1-15.2l89 29.5-47.3 142.5Zm0 0"/></clipPath><clipPath id="t"><path d="M44 3h62v137H44Zm0 0"/></clipPath><clipPath id="u"><path d="M-4.2 127.2 43.1-15.2l89 29.5-47.3 142.5Zm0 0"/></clipPath><clipPath id="v"><path d="M-4.2 127.2 43.1-15.2l89 29.5-47.3 142.5Zm0 0"/></clipPath><clipPath id="w"><path d="M96 14h9v28h-9Zm0 0"/></clipPath><clipPath id="x"><path d="M-4.2 127.2 43.1-15.2l89 29.5-47.3 142.5Zm0 0"/></clipPath><clipPath id="y"><path d="M-4.2 127.2 43.1-15.2l89 29.5-47.3 142.5Zm0 0"/></clipPath><clipPath id="C"><path d="M44 7h33v108H44Zm0 0"/></clipPath><clipPath id="D"><path d="M-4.2 127.2 43.1-15.2l89 29.5-47.3 142.5Zm0 0"/></clipPath><clipPath id="E"><path d="M-4.2 127.2 43.1-15.2l89 29.5-47.3 142.5Zm0 0"/></clipPath><clipPath id="F"><path d="M82 12h11v46H82Zm0 0"/></clipPath><clipPath id="G"><path d="M-4.2 127.2 43.1-15.2l89 29.5-47.3 142.5Zm0 0"/></clipPath><clipPath id="H"><path d="M-4.2 127.2 43.1-15.2l89 29.5-47.3 142.5Zm0 0"/></clipPath><clipPath id="I"><path d="M133 53h7.1v97.8H133Zm0 0"/></clipPath><clipPath id="a"><path d="M0 0h141v151H0z"/></clipPath><g id="J" clip-path="url(#a)"><use xlink:href="#d"/><g clip-path="url(#b)"><g clip-path="url(#c)"><g clip-path="url(#e)"><path fill="#127354" d="m118.6 38.6-12.3.4v.4S95 58.8 94 59c-12 2-22.7 3.6-34.8 5.4a471 471 0 0 1 28.5 40.2S86 111 76.1 119.5A363 363 0 0 1 46.8 143S17.1 108.2 9.1 95.2c3.7-17 21.8-73.8 26.6-84.1C44.9 7.5 55 5.5 64.5 2.5c6.3-1.5 18.4-3 18.4-3l17.8 12c5.8-.6 16.4-1.4 16.4-1.4Zm0 0"/></g></g></g><g clip-path="url(#f)"><g clip-path="url(#g)"><g clip-path="url(#h)"><path fill="#127354" d="M123.6 40.2 105.3 43l-11 20.3L64.9 69l27.8 35.1s-3.3 9.3-12.4 18a115 115 0 0 1-32.1 22.3s-25-32.5-33.4-45.3a826 826 0 0 1 21.7-83.7c8.7-3.7 18.2-5.8 27.3-9 6-1.5 17.5-3.3 17.5-3.3l19 12.5 2.8 13.8-1.3-15.4 17.9-3.7Zm0 0"/></g></g></g><g clip-path="url(#i)"><g clip-path="url(#l)"><g clip-path="url(#m)"><path fill="#A7C5A3" d="M123.1 38s-13.7 2.8-18.4 3.6c0 0-10.9 19.4-11.8 19.7s-18.4 4.5-30 6.2a556 556 0 0 1 26.5 36.7s-3.6 9.2-13 17.8c-17.6 15.9-29.6 21-29.6 21s-27.2-33.4-35-46.6A870 870 0 0 1 36.5 12C45.4 8.5 55 6.6 64.1 3.8 70.1 2.4 81.8 1 81.8 1l18.4 13.3 17.1-4.1Zm0 0"/></g></g></g><g clip-path="url(#n)"><g clip-path="url(#o)"><g clip-path="url(#p)"><path fill="#127354" d="M68.9 5.4v5.8c-.2 17 2.8 34 8.6 50l-2.8 1c-7-17.8-8-56.5-8-56.5Zm-17.3 5.4c-2.6 23.4 7.5 53.8 7.5 53.8s1.3-.6 2-.7c-9.8-24.4-7-53.6-7-53.6zM75 89.9s-23.6 8-38.6 32.6l1.3 1.8s9.8-15.1 16.9-20.3a115 115 0 0 1 22-11.7Zm30.5-76 4.8 29.9 2.3-.4c-1.7-10.9-3.3-19-5.5-29.9zm12 29.2s-4.2-20.9-5.8-30l2.4-.5c2 10.9 5 30.2 5 30.2Zm0 0"/></g></g></g><g clip-path="url(#q)"><g clip-path="url(#r)"><g clip-path="url(#s)"><path fill="#C2E1BE" d="m112 40.2.4 1.8-2.4.3-.2-1.7zm4.8-.9.3 1.9 1.7-.3-.3-2zm0 0"/></g></g></g><g clip-path="url(#t)"><g clip-path="url(#u)"><g clip-path="url(#v)"><path fill="#8CAA89" d="M84.6 108.4s-15.3 3.7-21 9.1-12.3 19.7-12.3 19.7l-3.6 1.9a64 64 0 0 1 14-22.7 45 45 0 0 1 25-11.9c-.8 1.9-2 4-2 4M82 4a109 109 0 0 0 9.8 55.5L93 58s-7.9-20-9.3-32.5c-.6-5.8.4-20.2.4-20.2ZM63 67.5l-18.7 4.8 23.5 1.2-2.5-3.1zM100.2 14l-4.1.9 6.8 27.2 2-.3Zm0 0"/></g></g></g><g clip-path="url(#w)"><g clip-path="url(#x)"><g clip-path="url(#y)"><path fill="#127354" d="m96.4 15.8-.2-.9h.3v.7zm3.3-1.7-.1.6.1.1h.2l.2-.8Zm-2.3 5.7v.4l.7-.4v-.2h-.2Zm-.6-2.5v.3l2.7-1.5v-.2q0-.1-.2 0Zm3.3 1 .1.2.9.2v-.3l-.8-.2zm1.2 9.5h.2l.9-1.5v-.5l-1.1 1.8zm.3 3.7 1.8 2.4h.3v-.2l-1.8-2.4h-.2v.2m1.3-.4v.2l.4.4v-.5h-.2q0-.2-.2 0m-2.5-.6-.2.1v.2h.2l.3-.2L103 29v-.2h-.2Zm-.2-8.3v.2l1.6.3v-.3l-1.5-.3zm-1.5-1.8-1 .8.1.3 1-.8h.1v-.2q0-.2-.2 0m5.7 18.4.2.1v-.2zm-4.3-18 .2.2h1.1v-.3h-1.1zm-2 2.2 2 2q.1.2.2 0V25l-2-2.1H98Zm3.4 1.1-1.2 2.7a.2.2 0 1 0 .2.2l1.3-2.8-.1-.2zm-4.4-8.9.1.2.2-.1v-.8h-.3Zm6.6 25V42h.4v-1.6l-.2-.2q-.2 0-.2.2m-1.6-1.5v.2h.2l1.7-2.6V36h-.1Zm-4.7-20.5v.2h.2l2.5-1.8v-.2h-.2Zm1.1-4v.3l.1.1h.2v-.4Zm.7 11.7v-.2l-.5-.5.1.6.2.1q0 .2.2 0m2 7-.5.3v.3l.5-.2.1-.1v-.1zm-.2 1.4v.3l.2-.1v-.2q0-.2-.2 0m1.5.6-1 1.8.2.5 1-2.2h.1V35zm0 0"/></g></g></g><g clip-path="url(#C)"><g clip-path="url(#D)"><g clip-path="url(#E)"><path fill="#A7C5A3" d="M69.7 27.7v.3l-.2.1-.8.2-.2-.3h.4l.2-.2zm.8 6.6v-.2h-.1zm-2.2-20.4v-.1m-.5 1.1v-.1M76 57.2l.2.2v.2l.2.1-.3-1zm-3-4.5q-.3 0-.4.2v.1q0 .4.3.5l.5.2h.5q.6-.2.2-.6l-.4-.3-.3-.1zm1.7.2v-.2l-.2-.2zm-22.9-27 .2.3h.4l-.3-.3zm1.7 6.6v.1h.2zM57 52.4l.2-.1H57m-5.7-34.9v.1m-4.6 94.3h-.1v.1l.2-.2zm-1.4-1.2-.1.2zm26.8-16.4.3-.1v-.3q.1-.2-.1-.3l-.3.3zm-12 5 .2.2q.3 0 .4-.2t.4-.1h.1v-.2l-.5-.2h-.3q-.4.1-.3.5m-1.3.3q-.3-.2-.4 0l-.2.1v.3h.2l.4-.2zm3.9-1.6.2.2.2-.2-.1-.4h-.4zm-3.3 1.8v.3h.3l.2-.2q0-.2-.2-.2zm12.1-7h.2v-.2q-.2 0-.2.3m-9.3 3.7h.2v-.1zm3.7-.9.2.1zm2.5-.9"/></g></g></g><g clip-path="url(#F)"><g clip-path="url(#G)"><g clip-path="url(#H)"><path fill="#127354" d="m91.8 54.6.2.4zm-8.2-31v-.4.1zm-.7 6.8.1-.2q0-.2-.2-.3h-.1zm2.4 6.8.2-.1q.1 0 0-.2zM91 53.3h.2q-.1-.2-.2 0m0 4.3v-.2zm-5.3-17.2v-.1h-.1zm.1 3.6h.2zm-.3-7.8q.1-.2 0-.2zm-1.8-9.9v-.1h-.2.2m-1-14.3"/></g></g></g><g clip-path="url(#I)"><path fill="#167854" d="M403.5 188.2a134.7 134.7 0 1 1-269.5 0 134.7 134.7 0 0 1 269.5 0"/></g></g></defs><use xlink:href="#J"/></svg>