<svg xmlns="http://www.w3.org/2000/svg" xmlns:xlink="http://www.w3.org/1999/xlink" width="101.2" height="78.7" viewBox="-0.9 3.3 101.2 78.7"><defs><clipPath id="ap"><path d="M.1.8H109v90H.1Zm0 0"/></clipPath><clipPath id="aq"><path d="M-10.9 54.5 75.4-6.7l33.4 47-86.2 61.3Zm0 0"/></clipPath><clipPath id="b"><path d="M15 15h44v33H15Zm0 0"/></clipPath><clipPath id="c"><path d="M-10.9 54.5 75.4-6.7l33.4 47-86.2 61.3Zm0 0"/></clipPath><clipPath id="d"><path d="m75.6-6.9-86.3 61.3 33.5 47L109 40.3Zm0 0"/></clipPath><clipPath id="g"><path d="m75.6-6.9-86.3 61.3 33.5 47L109 40.3Zm0 0"/></clipPath><clipPath id="h"><path d="M17 13h41v33H17Zm0 0"/></clipPath><clipPath id="i"><path d="M-10.9 54.5 75.4-6.7l33.4 47-86.2 61.3Zm0 0"/></clipPath><clipPath id="j"><path d="m75.6-6.9-86.3 61.3 33.5 47L109 40.3Zm0 0"/></clipPath><clipPath id="k"><path d="m75.6-6.9-86.3 61.3 33.5 47L109 40.3Zm0 0"/></clipPath><clipPath id="l"><path d="M16 13h42v34H16Zm0 0"/></clipPath><clipPath id="m"><path d="M-10.9 54.5 75.4-6.7l33.4 47-86.2 61.3Zm0 0"/></clipPath><clipPath id="n"><path d="m75.6-6.9-86.3 61.3 33.5 47L109 40.3Zm0 0"/></clipPath><clipPath id="o"><path d="m75.6-6.9-86.3 61.3 33.5 47L109 40.3Zm0 0"/></clipPath><clipPath id="p"><path d="M2 55h30v25H2Zm0 0"/></clipPath><clipPath id="q"><path d="M-10.9 54.5 75.4-6.7l33.4 47-86.2 61.3Zm0 0"/></clipPath><clipPath id="r"><path d="m75.6-6.9-86.3 61.3 33.5 47L109 40.3Zm0 0"/></clipPath><clipPath id="s"><path d="m75.6-6.9-86.3 61.3 33.5 47L109 40.3Zm0 0"/></clipPath><clipPath id="t"><path d="M2 54h30v26H2Zm0 0"/></clipPath><clipPath id="u"><path d="M-10.9 54.5 75.4-6.7l33.4 47-86.2 61.3Zm0 0"/></clipPath><clipPath id="v"><path d="m75.6-6.9-86.3 61.3 33.5 47L109 40.3Zm0 0"/></clipPath><clipPath id="w"><path d="m75.6-6.9-86.3 61.3 33.5 47L109 40.3Zm0 0"/></clipPath><clipPath id="x"><path d="M.1 52H31v27H.1Zm0 0"/></clipPath><clipPath id="y"><path d="M-10.9 54.5 75.4-6.7l33.4 47-86.2 61.3Zm0 0"/></clipPath><clipPath id="z"><path d="m75.6-6.9-86.3 61.3 33.5 47L109 40.3Zm0 0"/></clipPath><clipPath id="A"><path d="m75.6-6.9-86.3 61.3 33.5 47L109 40.3Zm0 0"/></clipPath><clipPath id="B"><path d="M.1 52H31v27H.1Zm0 0"/></clipPath><clipPath id="C"><path d="M-10.9 54.5 75.4-6.7l33.4 47-86.2 61.3Zm0 0"/></clipPath><clipPath id="D"><path d="m75.6-6.9-86.3 61.3 33.5 47L109 40.3Zm0 0"/></clipPath><clipPath id="E"><path d="m75.6-6.9-86.3 61.3 33.5 47L109 40.3Zm0 0"/></clipPath><clipPath id="F"><path d="M23.5 51-1 68.5l9 12.8 24.5-17.4Zm0 0"/></clipPath><clipPath id="G"><path d="M36 52h33v29H36Zm0 0"/></clipPath><clipPath id="H"><path d="M-10.9 54.5 75.4-6.7l33.4 47-86.2 61.3Zm0 0"/></clipPath><clipPath id="I"><path d="m75.6-6.9-86.3 61.3 33.5 47L109 40.3Zm0 0"/></clipPath><clipPath id="J"><path d="m75.6-6.9-86.3 61.3 33.5 47L109 40.3Zm0 0"/></clipPath><clipPath id="K"><path d="M35 52h34v29H35Zm0 0"/></clipPath><clipPath id="L"><path d="M-10.9 54.5 75.4-6.7l33.4 47-86.2 61.3Zm0 0"/></clipPath><clipPath id="M"><path d="m75.6-6.9-86.3 61.3 33.5 47L109 40.3Zm0 0"/></clipPath><clipPath id="N"><path d="m75.6-6.9-86.3 61.3 33.5 47L109 40.3Zm0 0"/></clipPath><clipPath id="O"><path d="M36 48h32v32H36Zm0 0"/></clipPath><clipPath id="P"><path d="M-10.9 54.5 75.4-6.7l33.4 47-86.2 61.3Zm0 0"/></clipPath><clipPath id="Q"><path d="m75.6-6.9-86.3 61.3 33.5 47L109 40.3Zm0 0"/></clipPath><clipPath id="R"><path d="m75.6-6.9-86.3 61.3 33.5 47L109 40.3Zm0 0"/></clipPath><clipPath id="S"><path d="M35 48h33v32H35Zm0 0"/></clipPath><clipPath id="T"><path d="M-10.9 54.5 75.4-6.7l33.4 47-86.2 61.3Zm0 0"/></clipPath><clipPath id="U"><path d="m75.6-6.9-86.3 61.3 33.5 47L109 40.3Zm0 0"/></clipPath><clipPath id="V"><path d="m75.6-6.9-86.3 61.3 33.5 47L109 40.3Zm0 0"/></clipPath><clipPath id="W"><path d="M66 5h33v48H66Zm0 0"/></clipPath><clipPath id="X"><path d="M-10.9 54.5 75.4-6.7l33.4 47-86.2 61.3Zm0 0"/></clipPath><clipPath id="Y"><path d="m75.6-6.9-86.3 61.3 33.5 47L109 40.3Zm0 0"/></clipPath><clipPath id="Z"><path d="m75.6-6.9-86.3 61.3 33.5 47L109 40.3Zm0 0"/></clipPath><clipPath id="aa"><path d="M66 5h33v48H66Zm0 0"/></clipPath><clipPath id="ab"><path d="M-10.9 54.5 75.4-6.7l33.4 47-86.2 61.3Zm0 0"/></clipPath><clipPath id="ac"><path d="m75.6-6.9-86.3 61.3 33.5 47L109 40.3Zm0 0"/></clipPath><clipPath id="ad"><path d="m75.6-6.9-86.3 61.3 33.5 47L109 40.3Zm0 0"/></clipPath><clipPath id="ae"><path d="M81 2.6 52.7 22.8l26.9 37.8L108 40.4Zm0 0"/></clipPath><clipPath id="af"><path d="M66 4h33v48H66Zm0 0"/></clipPath><clipPath id="ag"><path d="M-10.9 54.5 75.4-6.7l33.4 47-86.2 61.3Zm0 0"/></clipPath><clipPath id="ah"><path d="m75.6-6.9-86.3 61.3 33.5 47L109 40.3Zm0 0"/></clipPath><clipPath id="ai"><path d="m75.6-6.9-86.3 61.3 33.5 47L109 40.3Zm0 0"/></clipPath><clipPath id="aj"><path d="M66 4h34v48H66Zm0 0"/></clipPath><clipPath id="ak"><path d="M-10.9 54.5 75.4-6.7l33.4 47-86.2 61.3Zm0 0"/></clipPath><clipPath id="al"><path d="m75.6-6.9-86.3 61.3 33.5 47L109 40.3Zm0 0"/></clipPath><clipPath id="am"><path d="m75.6-6.9-86.3 61.3 33.5 47L109 40.3Zm0 0"/></clipPath><clipPath id="a"><path d="M0 0h109v91H0z"/></clipPath><clipPath id="an"><path d="M0 0h111v91H0z"/></clipPath><g id="ar" clip-path="url(#a)"><g clip-path="url(#b)"><g clip-path="url(#c)"><g clip-path="url(#d)"><g clip-path="url(#g)"><path fill="#A7C5A3" d="M56 15.5 53 19l-10.1.4-4 6.3-6.3 4.4-3 .2-1.8 3.2-6.4 5.4s-.3 2.4-1 4c-.6 1.4-4.6 3.8-4.6 3.8s14.1 2 23.9-4.5S57.1 28 58.3 18.8z"/><path fill="#127354" d="M58 18.9Q56.2 31 39.7 42a39 39 0 0 1-23 4.5c1.2-.7 3.6-2.4 4.1-3.6.6-1.3.9-3.3 1-3.8l6.3-5.5 1.8-3 2.8-.2h.1c1.4-1 6-4.2 6.3-4.6l4-6.2 10.2-.3 2.7-3.5ZM42.2 41q14.6-10.5 16.4-22v-.1L56 15l-3 3.8-10.3.4v.1l-4.1 6.3-6.1 4.3-3 .3-2 3.2-6.4 5.5v.1s-.3 2.4-.9 3.8c-.5 1.2-3.4 3.1-4.5 3.8l-.7.4h.8A40 40 0 0 0 42 41"/></g></g></g></g><g clip-path="url(#h)"><g clip-path="url(#i)"><g clip-path="url(#j)"><g clip-path="url(#k)"><path fill="#A7C5A3" d="m54.7 13.7-3 3.6-10.1.3-4 6.4-6.3 4.4-3 .2-1.8 3.2-6.4 5.4s.8 2.8.1 4.3c-.6 1.5-3 4.1-3 4.1s11.9 2.1 21.7-4.3 17.1-15 18.4-24z"/></g></g></g></g><g clip-path="url(#l)"><g clip-path="url(#m)"><g clip-path="url(#n)"><g clip-path="url(#o)"><path fill="#127354" d="M57 17.4c-1.2 8.3-7.7 16.7-18.3 23.7a33 33 0 0 1-21 4.3 19 19 0 0 0 2.8-3.8c.6-1.3 0-3.6-.1-4.3l6.3-5.4 1.8-3 2.9-.2c1.4-1 6-4.2 6.3-4.6l4-6.2 10.2-.4 2.8-3.4ZM41 40.2c9.6-6.8 15.4-14.9 16.6-22.8v-.1l-3-4.1-3 3.8-10.2.4-4.1 6.4-6.1 4.3-3 .2-2 3.3-6.4 5.5v.2s.8 2.7.2 4.1c-.6 1.5-3 4-3 4l-.4.4h.5a34 34 0 0 0 24-5.6"/></g></g></g></g><g clip-path="url(#p)"><g clip-path="url(#q)"><g clip-path="url(#r)"><g clip-path="url(#s)"><path fill="#A7C5A3" d="m26.2 56.4 5 9.6-9 6.6-3.4.5-6.2 6.1-10.1-8 7-5.7h2.1l2.1-1.6.1-2.8 11.5-6z"/></g></g></g></g><g clip-path="url(#t)"><g clip-path="url(#u)"><g clip-path="url(#v)"><g clip-path="url(#w)"><path fill="#127354" d="M30.9 66 22 72.4l-3.4.4-6.1 6-9.7-7.6 6.8-5.4h2l2.3-1.7v-2.8l11.2-6 .8 1.2Zm-8.6 6.9 9.3-6.8-5.1-9.9-1.2-1.5-11.7 6.2-.2 2.9-1.9 1.5h-2l-7.5 6 10.6 8.3 6.3-6.3z"/></g></g></g></g><g clip-path="url(#x)"><g clip-path="url(#y)"><g clip-path="url(#z)"><g clip-path="url(#A)"><path fill="#A7C5A3" d="m25.2 54.4 5.4 10.3-9.3 6.6-3.5.5-6.4 6.5L.5 69.9l7.4-6H10l2.2-1.6.2-3L24.3 53z"/></g></g></g></g><g clip-path="url(#B)"><g clip-path="url(#C)"><g clip-path="url(#D)"><g clip-path="url(#E)"><g clip-path="url(#F)"><path fill="#127354" d="m30.2 64.6-9 6.4-3.6.5-6.2 6.4L1 70l7-5.8h2l2.5-1.8.1-2.8 11.6-6.3.8 1.2Zm-18.7 14 6.4-6.5 3.5-.6 9.5-6.7-5.4-10.6-1.1-1.6L12 59.2l-.2 3-2 1.5H8l-8 6.1z"/></g></g></g></g></g><g clip-path="url(#G)"><g clip-path="url(#H)"><g clip-path="url(#I)"><g clip-path="url(#J)"><path fill="#A7C5A3" d="m36.2 74.5.5 1.7 7.2 4.4s11.3-2.5 16.9-10.3a52 52 0 0 0 7.6-16.7l-1.4-1-10.2 6.8-4.9 7.9z"/></g></g></g></g><g clip-path="url(#K)"><g clip-path="url(#L)"><g clip-path="url(#M)"><g clip-path="url(#N)"><path fill="#127354" d="M68 53.7c-.3 1.3-2.4 9.3-7.4 16.4A31 31 0 0 1 44 80.3l-7-4.2-.5-1.5 15.6-7 5-8L67 53ZM55.9 75.6q2.9-2.1 5.2-5.1a53 53 0 0 0 7.6-16.8v-.2L67 52.3l-10.4 7-4.9 7.8L36 74.3l.6 2.1 7.4 4.5a35 35 0 0 0 11.9-5.3"/></g></g></g></g><g clip-path="url(#O)"><g clip-path="url(#P)"><g clip-path="url(#Q)"><g clip-path="url(#R)"><path fill="#A7C5A3" d="M67 52.6s-5.9-.1-11.3-4.1c0 0-7.9 3.3-8.8 4.4l-1.2 7.8-4.5 1S38 67 39.7 72l-3.5 2.5 7.5 4.6s8.8-1 15-8A47 47 0 0 0 67 52.6"/></g></g></g></g><g clip-path="url(#S)"><g clip-path="url(#T)"><g clip-path="url(#U)"><g clip-path="url(#V)"><path fill="#127354" d="M66.7 52.8a46 46 0 0 1-8.2 18 25 25 0 0 1-14.7 8l-7.1-4.3 3.4-2.4-.1-.2c-1.6-4.6 1-9.2 1.3-10l4.6-1 1.2-7.9c1-.9 6.4-3.3 8.6-4.2 4.7 3.4 9.7 4 11 4m-11.9 22q2.1-1.5 4-3.6c6.2-7 8.5-18.5 8.5-18.6v-.3H67s-5.8-.1-11.1-4l-.1-.1h-.2c-.3.2-8 3.4-9 4.5l-1.2 7.8-4.4 1c-.2.3-3.2 5.3-1.6 10.4l-3.7 2.6 8 4.8c.1 0 5.8-.6 11.1-4.5"/></g></g></g></g><g clip-path="url(#W)"><g clip-path="url(#X)"><g clip-path="url(#Y)"><g clip-path="url(#Z)"><path fill="#A7C5A3" d="M77 6s-3.7 5.4-4.9 9.8c0 0-2.7 3.3-4.8 3.4l-.7 10.3 3.6 5L69 45l8.2 3 3.4-.6 6.4 5.2 6.3-2.3L96 38l2.6-10.1s-11-13-21.5-21.9"/></g></g></g></g><g clip-path="url(#aa)"><g clip-path="url(#ab)"><g clip-path="url(#ac)"><g clip-path="url(#ad)"><g clip-path="url(#ae)"><path fill="#127354" d="m98.3 27.9-2.6 9.9L93.1 50l-6 2.1-6.4-5.1-3.4.7-8-3 1.1-10.4-3.5-5 .7-10c2-.2 4.6-3.3 4.7-3.4v-.1c1-3.8 4.1-8.5 4.8-9.6C87 14.6 97.2 26.6 98.3 28m-4.7 22.6L96.3 38l2.6-10.2c-.2-.2-11.2-13.3-21.6-22l-.3-.2-.1.3c-.2.2-3.9 5.5-5 9.9-.4.4-2.8 3.2-4.6 3.2h-.2l-.8 10.6 3.6 5-1.1 10.7 8.4 3.2 3.4-.7L87 53z"/></g></g></g></g></g><g clip-path="url(#af)"><g clip-path="url(#ag)"><g clip-path="url(#ah)"><g clip-path="url(#ai)"><path fill="#A7C5A3" d="M77.4 4.7s-3.8 5.4-5 9.8c0 0-2.7 3.4-4.7 3.4l-.8 10.3 3.6 5-1 10.5 8.1 3.1 3.4-.7 6.4 5.2 6.3-2.3 2.6-12.4 2.6-10s-11-13.2-21.5-22"/></g></g></g></g><g clip-path="url(#aj)"><g clip-path="url(#ak)"><g clip-path="url(#al)"><g clip-path="url(#am)"><path fill="#127354" d="m98.6 26.6-2.5 10-2.6 12.2-6 2.2-6.4-5.2-3.5.7-7.9-3 1-10.4-3.5-5 .7-10c2.1-.2 4.7-3.3 4.8-3.4v-.1c1-3.8 4-8.4 4.8-9.5a211 211 0 0 1 21.1 21.5M94 49.3l2.6-12.7 2.6-10.2c-.2-.2-11.2-13.2-21.6-22l-.2-.1-.2.2c-.1.2-3.8 5.5-5 9.9-.3.4-2.8 3.2-4.5 3.2h-.3l-.7 10.7 3.5 5-1 10.6 8.4 3.2 3.3-.7 6.5 5.2z"/></g></g></g></g></g><g id="as" clip-path="url(#an)"><use xlink:href="#ao"/><g clip-path="url(#ap)"><g clip-path="url(#aq)"><use xlink:href="#ar"/></g></g></g></defs><use xlink:href="#as"/></svg>